<?xml version="1.0" encoding="UTF-8"?>
<!DOCTYPE svg PUBLIC "-//W3C//DTD SVG 1.1//EN" "http://www.w3.org/Graphics/SVG/1.1/DTD/svg11.dtd">
<svg xmlns="http://www.w3.org/2000/svg" version="1.1" width="1024px" height="1024px" style="shape-rendering:geometricPrecision; text-rendering:geometricPrecision; image-rendering:optimizeQuality; fill-rule:evenodd; clip-rule:evenodd" xmlns:xlink="http://www.w3.org/1999/xlink">
<g><path style="opacity:0.004" fill="#63c4be" d="M 472.5,139.5 C 473.833,140.167 473.833,140.167 472.5,139.5 Z"/></g>
<g><path style="opacity:0.008" fill="#63c7c0" d="M 539.5,139.5 C 540.833,140.167 540.833,140.167 539.5,139.5 Z"/></g>
<g><path style="opacity:0.004" fill="#65c3bd" d="M 555.5,141.5 C 556.833,142.167 556.833,142.167 555.5,141.5 Z"/></g>
<g><path style="opacity:0.999" fill="#53c3c4" d="M 562.5,144.5 C 582.689,149.013 600.522,154.347 616,160.5C 616.333,160.167 616.667,159.833 617,159.5C 617.417,160.756 618.25,161.423 619.5,161.5C 624.531,164.345 629.864,166.678 635.5,168.5C 635.842,169.338 636.508,169.672 637.5,169.5C 642.622,173.079 647.955,175.412 653.5,176.5C 650.833,176.833 650.833,177.167 653.5,177.5C 660.959,182.735 668.626,187.735 676.5,192.5C 680.883,196.214 685.55,199.547 690.5,202.5C 692.219,205.219 694.553,207.219 697.5,208.5C 697.973,209.906 698.973,210.573 700.5,210.5C 701.5,211.833 702.5,213.167 703.5,214.5C 702.761,214.369 702.094,214.536 701.5,215C 734.554,244.864 760.054,280.364 778,321.5C 778.483,320.552 778.649,319.552 778.5,318.5C 783.098,329.629 787.098,340.962 790.5,352.5C 793.473,364.672 795.473,377.005 796.5,389.5C 796.433,405.322 796.266,421.322 796,437.5C 794.928,443.141 794.595,448.807 795,454.5C 795.198,452.618 795.698,450.952 796.5,449.5C 796.167,453.5 795.833,457.5 795.5,461.5C 788.494,498.844 775.16,533.844 755.5,566.5C 747.252,579.325 739.252,592.325 731.5,605.5C 728.34,609.148 725.673,613.148 723.5,617.5C 721.336,619.822 719.669,622.489 718.5,625.5C 717.833,625.5 717.5,625.833 717.5,626.5C 714.084,630.323 711.418,634.657 709.5,639.5C 706.004,643.819 703.004,648.485 700.5,653.5C 697.806,656.876 695.473,660.543 693.5,664.5C 692.662,664.842 692.328,665.508 692.5,666.5C 691.094,666.973 690.427,667.973 690.5,669.5C 685.123,676.886 680.123,684.552 675.5,692.5C 665.171,707.033 655.171,722.366 645.5,738.5C 644.094,738.973 643.427,739.973 643.5,741.5C 640.34,745.148 637.673,749.148 635.5,753.5C 627.007,765.148 619.007,777.148 611.5,789.5C 606.809,795.536 602.475,801.869 598.5,808.5C 594.447,813.892 590.78,819.559 587.5,825.5C 574.389,843.619 562.055,862.286 550.5,881.5C 549.833,881.5 549.5,881.833 549.5,882.5C 541.939,894.061 533.273,904.728 523.5,914.5C 511.726,919.89 501.393,917.89 492.5,908.5C 490.058,905.271 487.392,902.271 484.5,899.5C 484.262,897.596 483.262,896.262 481.5,895.5C 479.938,891.608 477.605,888.275 474.5,885.5C 474.573,883.973 473.906,882.973 472.5,882.5C 471.66,880.147 470.326,878.147 468.5,876.5C 465.94,871.723 463.107,867.056 460,862.5C 458.719,862.619 457.552,862.119 456.5,861C 458.986,860.295 458.986,859.462 456.5,858.5C 455.89,856.566 454.89,854.899 453.5,853.5C 453.167,852.167 452.833,852.167 452.5,853.5C 449.887,852.905 449.887,852.071 452.5,851C 451.956,850.283 451.289,849.783 450.5,849.5C 447.996,844.485 444.996,839.819 441.5,835.5C 440.567,832.63 438.9,830.296 436.5,828.5C 434.913,824.317 432.579,820.65 429.5,817.5C 429.573,815.973 428.906,814.973 427.5,814.5C 427.573,812.973 426.906,811.973 425.5,811.5C 424.89,809.566 423.89,807.899 422.5,806.5C 422.573,804.973 421.906,803.973 420.5,803.5C 420.573,801.973 419.906,800.973 418.5,800.5C 416.89,796.9 414.89,793.566 412.5,790.5C 411.488,789.128 410.488,787.795 409.5,786.5C 409.672,785.508 409.338,784.842 408.5,784.5C 407.974,782.77 406.974,781.436 405.5,780.5C 405.672,779.508 405.338,778.842 404.5,778.5C 404.068,777.29 403.401,776.29 402.5,775.5C 401.89,774.609 401.557,773.609 401.5,772.5C 402.043,772.44 402.376,772.107 402.5,771.5C 383.062,741.104 363.895,711.438 345,682.5C 344.536,683.094 344.369,683.761 344.5,684.5C 342.344,681.844 340.011,679.344 337.5,677C 338.287,675.687 337.954,674.52 336.5,673.5C 335.189,670.865 333.522,668.531 331.5,666.5C 331.672,665.508 331.338,664.842 330.5,664.5C 329.025,660.202 326.358,657.035 322.5,655C 323.167,654.667 323.833,654.333 324.5,654C 323.448,652.881 322.281,652.381 321,652.5C 319.706,651.146 319.54,649.812 320.5,648.5C 319.164,645.846 317.497,643.513 315.5,641.5C 313.913,637.317 311.579,633.65 308.5,630.5C 306.582,625.657 303.916,621.323 300.5,617.5C 298.403,613.628 296.069,609.961 293.5,606.5C 293.5,605.833 293.167,605.5 292.5,605.5C 292.672,604.508 292.338,603.842 291.5,603.5C 290.974,601.77 289.974,600.436 288.5,599.5C 288.25,597.326 287.25,595.659 285.5,594.5C 284.331,591.489 282.664,588.822 280.5,586.5C 279.649,584.118 278.316,582.118 276.5,580.5C 273.439,573.662 269.439,567.662 264.5,562.5C 265.043,562.44 265.376,562.107 265.5,561.5C 262.667,556.5 259.833,551.5 257,546.5C 256.667,547.167 256.333,547.833 256,548.5C 256.683,545.492 255.85,542.826 253.5,540.5C 253.34,538.847 252.674,537.514 251.5,536.5C 251.719,535.325 251.386,534.325 250.5,533.5C 249.304,533.846 249.304,534.346 250.5,535C 249.5,535.667 248.5,535.667 247.5,535C 247.619,533.855 247.952,532.688 248.5,531.5C 248.28,526.87 246.613,522.537 243.5,518.5C 243.737,517.209 243.404,516.209 242.5,515.5C 242.204,513.597 241.537,511.93 240.5,510.5C 238.778,504.832 236.944,499.165 235,493.5C 234.667,494.5 234.333,495.5 234,496.5C 233.682,494.939 232.849,493.772 231.5,493C 232.448,492.517 233.448,492.351 234.5,492.5C 232.944,484.606 230.944,476.94 228.5,469.5C 228.57,465.575 227.903,461.909 226.5,458.5C 226.332,452.966 225.665,447.633 224.5,442.5C 223.23,426.661 223.23,410.994 224.5,395.5C 226.071,381.427 228.738,367.427 232.5,353.5C 231.515,351.902 231.349,350.235 232,348.5C 232.556,350.595 233.056,350.762 233.5,349C 230.61,347.108 230.944,346.275 234.5,346.5C 236.767,338.399 239.1,330.732 241.5,323.5C 247.601,309.296 254.268,295.296 261.5,281.5C 263.326,279.853 264.66,277.853 265.5,275.5C 267.192,273.795 268.525,271.795 269.5,269.5C 270.89,268.101 271.89,266.434 272.5,264.5C 274.9,262.704 276.567,260.37 277.5,257.5C 279.543,256.421 280.876,254.754 281.5,252.5C 282.833,251.167 284.167,249.833 285.5,248.5C 285.369,249.239 285.536,249.906 286,250.5C 311.194,218.808 341.694,193.475 377.5,174.5C 378.773,173.743 378.773,173.077 377.5,172.5C 383.04,169.23 388.707,166.23 394.5,163.5C 397.157,163.065 399.491,162.065 401.5,160.5C 408.009,158.402 414.342,156.068 420.5,153.5C 431.936,150.458 443.27,147.458 454.5,144.5C 460.812,143.646 467.145,142.979 473.5,142.5C 496.288,138.549 519.455,138.549 543,142.5C 543.333,142.167 543.667,141.833 544,141.5C 550.051,143.008 556.217,144.008 562.5,144.5 Z"/></g>
<g><path style="opacity:0.99" fill="#3db0ae" d="M 473.5,142.5 C 492.822,141.473 512.155,141.306 531.5,142C 514.157,142.254 496.823,142.754 479.5,143.5C 477.304,143.495 475.304,143.162 473.5,142.5 Z"/></g>
<g><path style="opacity:0.004" fill="#61c6c2" d="M 448.5,144.5 C 448.897,143.475 449.563,143.308 450.5,144C 449.906,144.464 449.239,144.631 448.5,144.5 Z"/></g>
<g><path style="opacity:0.004" fill="#5fc6be" d="M 451.5,143.5 C 452.833,144.167 452.833,144.167 451.5,143.5 Z"/></g>
<g><path style="opacity:0.008" fill="#60c5bd" d="M 454.5,144.5 C 453.833,143.167 453.833,143.167 454.5,144.5 Z"/></g>
<g><path style="opacity:0.004" fill="#5fc3bf" d="M 562.5,144.5 C 563.946,143.387 565.613,143.22 567.5,144C 565.866,144.494 564.199,144.66 562.5,144.5 Z"/></g>
<g><path style="opacity:0.008" fill="#61c4be" d="M 570.5,144.5 C 571.833,145.167 571.833,145.167 570.5,144.5 Z"/></g>
<g><path style="opacity:0.004" fill="#61c4c0" d="M 432.5,147.5 C 431.833,146.167 431.833,146.167 432.5,147.5 Z"/></g>
<g><path style="opacity:0.005" fill="#61c3bf" d="M 432.5,147.5 C 433.789,146.499 435.122,146.666 436.5,148C 434.934,148.765 433.601,148.598 432.5,147.5 Z"/></g>
<g><path style="opacity:0.004" fill="#61c4bf" d="M 579.5,146.5 C 580.833,147.167 580.833,147.167 579.5,146.5 Z"/></g>
<g><path style="opacity:0.004" fill="#63c3bf" d="M 427.5,149.5 C 428.833,150.167 428.833,150.167 427.5,149.5 Z"/></g>
<g><path style="opacity:0.004" fill="#60c3bf" d="M 412.5,152.5 C 412.897,151.475 413.563,151.308 414.5,152C 413.906,152.464 413.239,152.631 412.5,152.5 Z"/></g>
<g><path style="opacity:0.004" fill="#63c6c2" d="M 416.5,152.5 C 415.833,151.167 415.833,151.167 416.5,152.5 Z"/></g>
<g><path style="opacity:0.007" fill="#60c4c0" d="M 420.5,153.5 C 418.901,153.768 417.568,153.434 416.5,152.5C 418.512,151.986 420.512,151.82 422.5,152C 421.584,152.278 420.918,152.778 420.5,153.5 Z"/></g>
<g><path style="opacity:0.004" fill="#60c2bc" d="M 407.5,152.5 C 408.833,153.167 408.833,153.167 407.5,152.5 Z"/></g>
<g><path style="opacity:0.004" fill="#61c3bf" d="M 599.5,152.5 C 600.833,153.167 600.833,153.167 599.5,152.5 Z"/></g>
<g><path style="opacity:0.004" fill="#63c3c0" d="M 398.5,160.5 C 399.5,159.167 400.5,159.167 401.5,160.5C 400.5,160.5 399.5,160.5 398.5,160.5 Z"/></g>
<g><path style="opacity:0.004" fill="#5dc2be" d="M 398.5,160.5 C 397.833,161.167 397.833,161.167 398.5,160.5 Z"/></g>
<g><path style="opacity:0.004" fill="#5cc3bd" d="M 619.5,160.5 C 620.833,161.167 620.833,161.167 619.5,160.5 Z"/></g>
<g><path style="opacity:0.004" fill="#5bc1be" d="M 394.5,163.5 C 393.833,162.167 393.833,162.167 394.5,163.5 Z"/></g>
<g><path style="opacity:0.004" fill="#61c8c0" d="M 625.5,162.5 C 626.833,163.167 626.833,163.167 625.5,162.5 Z"/></g>
<g><path style="opacity:0.004" fill="#5fc5bd" d="M 377.5,167.5 C 378.833,168.167 378.833,168.167 377.5,167.5 Z"/></g>
<g><path style="opacity:0.007" fill="#5fc3c1" d="M 635.5,168.5 C 636.708,167.218 638.042,167.218 639.5,168.5C 639.043,169.298 638.376,169.631 637.5,169.5C 637.158,168.662 636.492,168.328 635.5,168.5 Z"/></g>
<g><path style="opacity:0.004" fill="#62c3bf" d="M 640.5,169.5 C 641.833,170.167 641.833,170.167 640.5,169.5 Z"/></g>
<g><path style="opacity:0.006" fill="#60c3be" d="M 362.5,175.5 C 364.975,175.747 364.975,176.413 362.5,177.5C 361.537,177.03 361.537,176.363 362.5,175.5 Z"/></g>
<g><path style="opacity:0.012" fill="#62c4bf" d="M 368.5,176.5 C 367.761,176.631 367.094,176.464 366.5,176C 367.437,175.308 368.103,175.475 368.5,176.5 Z"/></g>
<g><path style="opacity:0.008" fill="#5dc3c1" d="M 653.5,176.5 C 654.833,177.167 654.833,177.167 653.5,176.5 Z"/></g>
<g><path style="opacity:0.012" fill="#60c4be" d="M 361.5,180.5 C 360.227,179.923 360.227,179.257 361.5,178.5C 362.463,178.97 362.463,179.637 361.5,180.5 Z"/></g>
<g><path style="opacity:0.004" fill="#61c6c2" d="M 353.5,183.5 C 354.833,184.167 354.833,184.167 353.5,183.5 Z"/></g>
<g><path style="opacity:0.004" fill="#5ec4c0" d="M 665.5,183.5 C 666.833,184.167 666.833,184.167 665.5,183.5 Z"/></g>
<g><path style="opacity:0.004" fill="#5dc5be" d="M 668.5,184.5 C 669.833,185.167 669.833,185.167 668.5,184.5 Z"/></g>
<g><path style="opacity:0.004" fill="#62c4c0" d="M 338.5,192.5 C 337.833,191.167 337.833,191.167 338.5,192.5 Z"/></g>
<g><path style="opacity:0.008" fill="#5fc4be" d="M 341.5,192.5 C 340.5,193.833 339.5,193.833 338.5,192.5C 339.5,191.167 340.5,191.167 341.5,192.5 Z"/></g>
<g><path style="opacity:0.004" fill="#61c4bd" d="M 341.5,191.5 C 342.833,192.167 342.833,192.167 341.5,191.5 Z"/></g>
<g><path style="opacity:0.004" fill="#5ec2c0" d="M 676.5,192.5 C 677.251,191.427 678.251,191.26 679.5,192C 678.552,192.483 677.552,192.649 676.5,192.5 Z"/></g>
<g><path style="opacity:0.004" fill="#60c4c0" d="M 336.5,195.5 C 337.833,196.167 337.833,196.167 336.5,195.5 Z"/></g>
<g><path style="opacity:0.004" fill="#5ec2bc" d="M 328.5,199.5 C 329.833,200.167 329.833,200.167 328.5,199.5 Z"/></g>
<g><path style="opacity:0.008" fill="#59c0bd" d="M 690.5,201.5 C 691.833,202.167 691.833,202.167 690.5,201.5 Z"/></g>
<g><path style="opacity:0.008" fill="#5fc4be" d="M 694.5,204.5 C 695.833,205.167 695.833,205.167 694.5,204.5 Z"/></g>
<g><path style="opacity:0.004" fill="#5fc4bd" d="M 319.5,207.5 C 320.833,208.167 320.833,208.167 319.5,207.5 Z"/></g>
<g><path style="opacity:0.004" fill="#5fc3bf" d="M 323.5,208.5 C 322.761,208.631 322.094,208.464 321.5,208C 322.437,207.308 323.103,207.475 323.5,208.5 Z"/></g>
<g><path style="opacity:0.004" fill="#5cbfbb" d="M 697.5,207.5 C 698.833,208.167 698.833,208.167 697.5,207.5 Z"/></g>
<g><path style="opacity:0.004" fill="#5fc4c0" d="M 319.5,209.5 C 320.833,210.167 320.833,210.167 319.5,209.5 Z"/></g>
<g><path style="opacity:0.004" fill="#5cc4bf" d="M 700.5,209.5 C 701.833,210.167 701.833,210.167 700.5,209.5 Z"/></g>
<g><path style="opacity:0.004" fill="#64c5c0" d="M 314.5,216.5 C 313.833,215.167 313.833,215.167 314.5,216.5 Z"/></g>
<g><path style="opacity:1" fill="#4cb8b6" d="M 377.5,172.5 C 378.773,173.077 378.773,173.743 377.5,174.5C 341.694,193.475 311.194,218.808 286,250.5C 285.536,249.906 285.369,249.239 285.5,248.5C 286.833,246.5 288.167,244.5 289.5,242.5C 290.167,242.5 290.5,242.167 290.5,241.5C 296.806,234.86 303.139,228.193 309.5,221.5C 311.5,220.167 313.167,218.5 314.5,216.5C 317.526,213.805 320.526,211.138 323.5,208.5C 335.849,198.667 348.516,189.333 361.5,180.5C 364.331,179.921 366.664,178.588 368.5,176.5C 371.5,175.167 374.5,173.833 377.5,172.5 Z"/></g>
<g><path style="opacity:0.012" fill="#5cc2bf" d="M 710.5,218.5 C 711.833,219.167 711.833,219.167 710.5,218.5 Z"/></g>
<g><path style="opacity:0.004" fill="#5bbfba" d="M 309.5,221.5 C 308.833,220.167 308.833,220.167 309.5,221.5 Z"/></g>
<g><path style="opacity:0.004" fill="#62c2bd" d="M 304.5,223.5 C 305.833,224.167 305.833,224.167 304.5,223.5 Z"/></g>
<g><path style="opacity:0.006" fill="#5cc2c0" d="M 718.5,226.5 C 718.167,226.5 717.833,226.5 717.5,226.5C 717.5,225.833 717.167,225.5 716.5,225.5C 717.988,222.814 718.655,223.147 718.5,226.5 Z"/></g>
<g><path style="opacity:0.004" fill="#61c3bd" d="M 304.5,224.5 C 303.833,225.167 303.833,225.167 304.5,224.5 Z"/></g>
<g><path style="opacity:0.012" fill="#5bc4c1" d="M 718.5,226.5 C 719.833,227.167 719.833,227.167 718.5,226.5 Z"/></g>
<g><path style="opacity:0.004" fill="#62c4c0" d="M 295.5,231.5 C 296.833,232.167 296.833,232.167 295.5,231.5 Z"/></g>
<g><path style="opacity:0.999" fill="#fefefe" d="M 571.5,240.5 C 586.144,245.323 599.811,251.99 612.5,260.5C 633.603,278.675 648.769,301.009 658,327.5C 661.182,337.858 664.015,348.191 666.5,358.5C 668.672,373.918 670.005,389.418 670.5,405C 670.214,412.559 669.547,420.059 668.5,427.5C 591.17,428.5 513.836,428.833 436.5,428.5C 436.5,430.167 436.5,431.833 436.5,433.5C 436.854,442.121 438.188,450.454 440.5,458.5C 441.772,466.339 444.772,473.339 449.5,479.5C 449.427,481.027 450.094,482.027 451.5,482.5C 462.275,499.239 477.608,509.239 497.5,512.5C 526.219,518.205 550.052,509.871 569,487.5C 571.038,484.757 572.538,481.757 573.5,478.5C 574.601,477.152 575.601,475.652 576.5,474C 606.165,473.5 635.831,473.333 665.5,473.5C 665.5,473.833 665.5,474.167 665.5,474.5C 662.815,488.223 658.148,501.223 651.5,513.5C 643.239,524.43 633.906,534.43 623.5,543.5C 611.794,552.024 599.127,559.024 585.5,564.5C 566.667,571.709 547.333,576.376 527.5,578.5C 513.149,578.68 498.816,578.347 484.5,577.5C 476.215,575.772 467.882,573.772 459.5,571.5C 445.716,567.274 432.383,561.941 419.5,555.5C 413.115,550.451 406.448,545.785 399.5,541.5C 392.103,534.107 385.103,526.44 378.5,518.5C 368.132,502.424 360.465,485.091 355.5,466.5C 348.92,441.209 346.92,415.543 349.5,389.5C 352.099,358.039 360.766,328.372 375.5,300.5C 389.286,278.381 407.62,261.048 430.5,248.5C 441.606,243.909 452.939,239.909 464.5,236.5C 500.508,227.75 536.175,229.083 571.5,240.5 Z"/></g>
<g><path style="opacity:0.008" fill="#5cc3bf" d="M 726.5,234.5 C 727.833,235.167 727.833,235.167 726.5,234.5 Z"/></g>
<g><path style="opacity:0.012" fill="#5fc4bf" d="M 730.5,239.5 C 731.833,240.167 731.833,240.167 730.5,239.5 Z"/></g>
<g><path style="opacity:0.004" fill="#5ec2be" d="M 733.5,239.5 C 734.833,240.167 734.833,240.167 733.5,239.5 Z"/></g>
<g><path style="opacity:0.006" fill="#60c2be" d="M 290.5,241.5 C 289.833,241.5 289.5,241.833 289.5,242.5C 287.24,241.762 287.073,240.762 289,239.5C 289.717,240.044 290.217,240.711 290.5,241.5 Z"/></g>
<g><path style="opacity:0.004" fill="#5fc2bd" d="M 734.5,242.5 C 733.833,241.167 733.833,241.167 734.5,242.5 Z"/></g>
<g><path style="opacity:0.004" fill="#5cc2bd" d="M 734.5,242.5 C 735.833,243.167 735.833,243.167 734.5,242.5 Z"/></g>
<g><path style="opacity:0.996" fill="#2ea9ac" d="M 464.5,236.5 C 452.939,239.909 441.606,243.909 430.5,248.5C 440.738,242.915 451.571,238.582 463,235.5C 463.765,235.57 464.265,235.903 464.5,236.5 Z"/></g>
<g><path style="opacity:0.996" fill="#4ebbb9" d="M 703.5,214.5 C 707.648,218.404 711.981,222.071 716.5,225.5C 717.167,225.5 717.5,225.833 717.5,226.5C 717.5,227.167 717.833,227.5 718.5,227.5C 722.277,232.065 726.277,236.398 730.5,240.5C 736.864,248.524 743.197,256.524 749.5,264.5C 756.421,275.342 763.088,286.342 769.5,297.5C 771.597,302.689 773.93,307.689 776.5,312.5C 777.167,314.5 777.833,316.5 778.5,318.5C 778.649,319.552 778.483,320.552 778,321.5C 760.054,280.364 734.554,244.864 701.5,215C 702.094,214.536 702.761,214.369 703.5,214.5 Z"/></g>
<g><path style="opacity:0.012" fill="#5ec1be" d="M 281.5,252.5 C 280.761,252.631 280.094,252.464 279.5,252C 280.437,251.308 281.103,251.475 281.5,252.5 Z"/></g>
<g><path style="opacity:1" fill="#24a4a8" d="M 571.5,240.5 C 571.735,239.903 572.235,239.57 573,239.5C 587.625,244.059 600.792,251.059 612.5,260.5C 599.811,251.99 586.144,245.323 571.5,240.5 Z"/></g>
<g><path style="opacity:0.012" fill="#5fc0ba" d="M 277.5,257.5 C 276.833,256.167 276.833,256.167 277.5,257.5 Z"/></g>
<g><path style="opacity:0.004" fill="#5ec3bd" d="M 747.5,260.5 C 748.833,261.167 748.833,261.167 747.5,260.5 Z"/></g>
<g><path style="opacity:0.012" fill="#64c4c3" d="M 272.5,264.5 C 271.475,264.103 271.308,263.437 272,262.5C 272.464,263.094 272.631,263.761 272.5,264.5 Z"/></g>
<g><path style="opacity:0.004" fill="#5fc5c1" d="M 749.5,263.5 C 750.833,264.167 750.833,264.167 749.5,263.5 Z"/></g>
<g><path style="opacity:0.004" fill="#60c0bd" d="M 269.5,269.5 C 268.833,268.167 268.833,268.167 269.5,269.5 Z"/></g>
<g><path style="opacity:0.004" fill="#5dc2bc" d="M 265.5,275.5 C 264.833,274.167 264.833,274.167 265.5,275.5 Z"/></g>
<g><path style="opacity:0.004" fill="#62c2bf" d="M 760.5,279.5 C 761.833,280.167 761.833,280.167 760.5,279.5 Z"/></g>
<g><path style="opacity:0.004" fill="#5dc1bb" d="M 261.5,281.5 C 260.833,280.167 260.833,280.167 261.5,281.5 Z"/></g>
<g><path style="opacity:0.004" fill="#60c4be" d="M 257.5,282.5 C 258.833,283.167 258.833,283.167 257.5,282.5 Z"/></g>
<g><path style="opacity:0.004" fill="#63c1be" d="M 255.5,288.5 C 256.833,289.167 256.833,289.167 255.5,288.5 Z"/></g>
<g><path style="opacity:0.004" fill="#5bc1bd" d="M 769.5,296.5 C 770.833,297.167 770.833,297.167 769.5,296.5 Z"/></g>
<g><path style="opacity:0.999" fill="#53c3c4" d="M 517.5,297.5 C 529.458,299.821 541.125,304.487 552.5,311.5C 553.492,311.328 554.158,311.662 554.5,312.5C 554.062,312.435 553.728,312.601 553.5,313C 560.504,319.822 566.504,327.322 571.5,335.5C 575.752,346.76 578.085,358.427 578.5,370.5C 531.833,370.5 485.167,370.5 438.5,370.5C 438.737,369.209 438.404,368.209 437.5,367.5C 437.232,365.901 437.566,364.568 438.5,363.5C 438.369,364.239 438.536,364.906 439,365.5C 441.228,351.648 445.728,338.648 452.5,326.5C 452.427,324.973 453.094,323.973 454.5,323.5C 458.631,319.87 462.631,316.037 466.5,312C 472.711,308.286 478.377,304.786 483.5,301.5C 494.456,296.715 505.789,295.381 517.5,297.5 Z"/></g>
<g><path style="opacity:1" fill="#22a4a8" d="M 517.5,297.5 C 530.842,298.274 542.509,302.941 552.5,311.5C 541.125,304.487 529.458,299.821 517.5,297.5 Z"/></g>
<g><path style="opacity:1" fill="#1fa5a8" d="M 483.5,301.5 C 478.377,304.786 472.711,308.286 466.5,312C 462.631,316.037 458.631,319.87 454.5,323.5C 461.716,313.046 471.382,305.712 483.5,301.5 Z"/></g>
<g><path style="opacity:0.012" fill="#5fc4c1" d="M 773.5,303.5 C 774.833,304.167 774.833,304.167 773.5,303.5 Z"/></g>
<g><path style="opacity:0.004" fill="#5ec0bc" d="M 247.5,304.5 C 248.833,305.167 248.833,305.167 247.5,304.5 Z"/></g>
<g><path style="opacity:0.012" fill="#5fc1bb" d="M 776.5,311.5 C 777.833,312.167 777.833,312.167 776.5,311.5 Z"/></g>
<g><path style="opacity:0.004" fill="#5fc3bd" d="M 242.5,316.5 C 243.833,317.167 243.833,317.167 242.5,316.5 Z"/></g>
<g><path style="opacity:1" fill="#21a3a8" d="M 554.5,312.5 C 562.088,318.754 567.755,326.42 571.5,335.5C 566.504,327.322 560.504,319.822 553.5,313C 553.728,312.601 554.062,312.435 554.5,312.5 Z"/></g>
<g><path style="opacity:0.008" fill="#5ec3bf" d="M 241.5,323.5 C 240.427,322.749 240.26,321.749 241,320.5C 241.483,321.448 241.649,322.448 241.5,323.5 Z"/></g>
<g><path style="opacity:0.004" fill="#60c3bf" d="M 786.5,335.5 C 787.833,336.167 787.833,336.167 786.5,335.5 Z"/></g>
<g><path style="opacity:0.004" fill="#61c4be" d="M 787.5,339.5 C 788.833,340.167 788.833,340.167 787.5,339.5 Z"/></g>
<g><path style="opacity:1" fill="#2ca5a9" d="M 452.5,326.5 C 445.728,338.648 441.228,351.648 439,365.5C 438.536,364.906 438.369,364.239 438.5,363.5C 439.646,349.714 444.313,337.381 452.5,326.5 Z"/></g>
<g><path style="opacity:0.008" fill="#61c3be" d="M 788.5,343.5 C 789.833,344.167 789.833,344.167 788.5,343.5 Z"/></g>
<g><path style="opacity:0.004" fill="#63c5c1" d="M 232.5,343.5 C 233.525,343.897 233.692,344.563 233,345.5C 232.536,344.906 232.369,344.239 232.5,343.5 Z"/></g>
<g><path style="opacity:0.004" fill="#62c4bf" d="M 789.5,346.5 C 790.833,347.167 790.833,347.167 789.5,346.5 Z"/></g>
<g><path style="opacity:0.004" fill="#62c3c0" d="M 790.5,349.5 C 791.833,350.167 791.833,350.167 790.5,349.5 Z"/></g>
<g><path style="opacity:0.012" fill="#5abfbb" d="M 790.5,351.5 C 791.833,352.167 791.833,352.167 790.5,351.5 Z"/></g>
<g><path style="opacity:0.004" fill="#61c1bd" d="M 228.5,359.5 C 229.525,359.897 229.692,360.563 229,361.5C 228.536,360.906 228.369,360.239 228.5,359.5 Z"/></g>
<g><path style="opacity:1" fill="#20a5a9" d="M 375.5,300.5 C 360.766,328.372 352.099,358.039 349.5,389.5C 349.923,367.227 354.423,345.56 363,324.5C 366.416,315.998 370.583,307.998 375.5,300.5 Z"/></g>
<g><path style="opacity:0.996" fill="#119da0" d="M 571.5,335.5 C 577.594,346.622 580.26,358.622 579.5,371.5C 532.167,371.5 484.833,371.5 437.5,371.5C 437.5,370.167 437.5,368.833 437.5,367.5C 438.404,368.209 438.737,369.209 438.5,370.5C 485.167,370.5 531.833,370.5 578.5,370.5C 578.085,358.427 575.752,346.76 571.5,335.5 Z"/></g>
<g><path style="opacity:0.004" fill="#63c5c1" d="M 796.5,375.5 C 797.833,376.167 797.833,376.167 796.5,375.5 Z"/></g>
<g><path style="opacity:0.004" fill="#62c4c0" d="M 224.5,380.5 C 225.833,381.167 225.833,381.167 224.5,380.5 Z"/></g>
<g><path style="opacity:0.004" fill="#63c6c2" d="M 797.5,383.5 C 798.833,384.167 798.833,384.167 797.5,383.5 Z"/></g>
<g><path style="opacity:0.004" fill="#61c5c0" d="M 223.5,386.5 C 224.833,387.167 224.833,387.167 223.5,386.5 Z"/></g>
<g><path style="opacity:0.012" fill="#61c3c1" d="M 223.5,388.5 C 224.833,389.167 224.833,389.167 223.5,388.5 Z"/></g>
<g><path style="opacity:0.008" fill="#5fc3c0" d="M 223.5,390.5 C 224.525,390.897 224.692,391.563 224,392.5C 223.536,391.906 223.369,391.239 223.5,390.5 Z"/></g>
<g><path style="opacity:0.006" fill="#61c3bf" d="M 224.5,395.5 C 223.475,395.103 223.308,394.437 224,393.5C 224.464,394.094 224.631,394.761 224.5,395.5 Z"/></g>
<g><path style="opacity:0.006" fill="#5dc1be" d="M 798.5,393.5 C 799.598,394.601 799.765,395.934 799,397.5C 798.51,396.207 798.343,394.873 798.5,393.5 Z"/></g>
<g><path style="opacity:0.863" fill="#65cccb" d="M 796.5,389.5 C 799.461,407.801 799.794,425.968 797.5,444C 797.603,445.561 797.937,447.061 798.5,448.5C 798.03,449.463 797.363,449.463 796.5,448.5C 797.799,428.835 797.799,409.169 796.5,389.5 Z"/></g>
<g><path style="opacity:0.998" fill="#36adaa" d="M 796.5,389.5 C 797.799,409.169 797.799,428.835 796.5,448.5C 796.5,448.833 796.5,449.167 796.5,449.5C 795.698,450.952 795.198,452.618 795,454.5C 794.595,448.807 794.928,443.141 796,437.5C 796.266,421.322 796.433,405.322 796.5,389.5 Z"/></g>
<g><path style="opacity:0.998" fill="#11a3a5" d="M 436.5,433.5 C 436.5,431.833 436.5,430.167 436.5,428.5C 513.836,428.833 591.17,428.5 668.5,427.5C 669.547,420.059 670.214,412.559 670.5,405C 670.005,389.418 668.672,373.918 666.5,358.5C 667.934,360.626 668.767,363.626 669,367.5C 671.939,387.849 672.106,408.183 669.5,428.5C 592.17,429.5 514.836,429.833 437.5,429.5C 437.768,431.099 437.434,432.432 436.5,433.5 Z"/></g>
<g><path style="opacity:0.012" fill="#5dc3bc" d="M 798.5,441.5 C 799.525,441.897 799.692,442.563 799,443.5C 798.536,442.906 798.369,442.239 798.5,441.5 Z"/></g>
<g><path style="opacity:0.004" fill="#5fc1bd" d="M 224.5,442.5 C 223.833,443.167 223.833,443.167 224.5,442.5 Z"/></g>
<g><path style="opacity:0.004" fill="#5fc4be" d="M 798.5,444.5 C 799.833,445.167 799.833,445.167 798.5,444.5 Z"/></g>
<g><path style="opacity:0.004" fill="#63c5c3" d="M 223.5,444.5 C 224.598,445.601 224.765,446.934 224,448.5C 223.51,447.207 223.343,445.873 223.5,444.5 Z"/></g>
<g><path style="opacity:0.012" fill="#5fc2c0" d="M 797.5,450.5 C 798.833,451.167 798.833,451.167 797.5,450.5 Z"/></g>
<g><path style="opacity:0.004" fill="#60c3bd" d="M 224.5,452.5 C 225.833,453.167 225.833,453.167 224.5,452.5 Z"/></g>
<g><path style="opacity:0.004" fill="#63c5c1" d="M 224.5,454.5 C 225.833,455.167 225.833,455.167 224.5,454.5 Z"/></g>
<g><path style="opacity:0.008" fill="#63c8bf" d="M 797.5,455.5 C 798.833,456.167 798.833,456.167 797.5,455.5 Z"/></g>
<g><path style="opacity:0.004" fill="#5fc1bd" d="M 226.5,458.5 C 225.833,459.167 225.833,459.167 226.5,458.5 Z"/></g>
<g><path style="opacity:0.008" fill="#5cc0bc" d="M 795.5,461.5 C 796.833,462.167 796.833,462.167 795.5,461.5 Z"/></g>
<g><path style="opacity:0.006" fill="#5fc1be" d="M 227.5,469.5 C 226.387,468.054 226.22,466.387 227,464.5C 227.494,466.134 227.66,467.801 227.5,469.5 Z"/></g>
<g><path style="opacity:0.004" fill="#60c1bd" d="M 223.5,468.5 C 224.833,469.167 224.833,469.167 223.5,468.5 Z"/></g>
<g><path style="opacity:0.004" fill="#62c4bf" d="M 794.5,469.5 C 795.833,470.167 795.833,470.167 794.5,469.5 Z"/></g>
<g><path style="opacity:0.016" fill="#5dc0bd" d="M 227.5,469.5 C 227.833,469.5 228.167,469.5 228.5,469.5C 228.167,472.167 227.833,472.167 227.5,469.5 Z"/></g>
<g><path style="opacity:0.996" fill="#26a4a7" d="M 449.5,479.5 C 444.772,473.339 441.772,466.339 440.5,458.5C 443.464,464.841 446.464,471.841 449.5,479.5 Z"/></g>
<g><path style="opacity:0.008" fill="#62c3be" d="M 794.5,471.5 C 795.833,472.167 795.833,472.167 794.5,471.5 Z"/></g>
<g><path style="opacity:1" fill="#069798" d="M 665.5,473.5 C 635.831,473.333 606.165,473.5 576.5,474C 575.601,475.652 574.601,477.152 573.5,478.5C 573.472,476.418 574.139,474.584 575.5,473C 605.669,472.169 635.669,472.336 665.5,473.5 Z"/></g>
<g><path style="opacity:0.004" fill="#62c5be" d="M 793.5,474.5 C 794.833,475.167 794.833,475.167 793.5,474.5 Z"/></g>
<g><path style="opacity:0.004" fill="#61c0bc" d="M 228.5,475.5 C 229.833,476.167 229.833,476.167 228.5,475.5 Z"/></g>
<g><path style="opacity:0.008" fill="#62c1be" d="M 231.5,486.5 C 232.573,487.251 232.74,488.251 232,489.5C 231.517,488.552 231.351,487.552 231.5,486.5 Z"/></g>
<g><path style="opacity:0.008" fill="#60c3be" d="M 231.5,491.5 C 231.897,490.475 232.563,490.308 233.5,491C 232.906,491.464 232.239,491.631 231.5,491.5 Z"/></g>
<g><path style="opacity:0.004" fill="#60c4c1" d="M 789.5,490.5 C 790.525,490.897 790.692,491.563 790,492.5C 789.536,491.906 789.369,491.239 789.5,490.5 Z"/></g>
<g><path style="opacity:0.008" fill="#61c7c2" d="M 788.5,493.5 C 789.525,493.897 789.692,494.563 789,495.5C 788.536,494.906 788.369,494.239 788.5,493.5 Z"/></g>
<g><path style="opacity:0.004" fill="#5fc1bd" d="M 231.5,496.5 C 232.833,497.167 232.833,497.167 231.5,496.5 Z"/></g>
<g><path style="opacity:0.008" fill="#60c2bd" d="M 234.5,497.5 C 235.833,498.167 235.833,498.167 234.5,497.5 Z"/></g>
<g><path style="opacity:1" fill="#2fa8aa" d="M 665.5,474.5 C 666.139,475.097 666.472,475.93 666.5,477C 664.299,490.464 659.299,502.631 651.5,513.5C 658.148,501.223 662.815,488.223 665.5,474.5 Z"/></g>
<g><path style="opacity:0.008" fill="#61c4bf" d="M 787.5,498.5 C 788.833,499.167 788.833,499.167 787.5,498.5 Z"/></g>
<g><path style="opacity:0.004" fill="#5fc2bd" d="M 231.5,500.5 C 232.833,501.167 232.833,501.167 231.5,500.5 Z"/></g>
<g><path style="opacity:0.008" fill="#5fc1bf" d="M 235.5,500.5 C 236.525,500.897 236.692,501.563 236,502.5C 235.536,501.906 235.369,501.239 235.5,500.5 Z"/></g>
<g><path style="opacity:1" fill="#2ba6aa" d="M 355.5,466.5 C 360.465,485.091 368.132,502.424 378.5,518.5C 367.333,503.495 359.333,486.828 354.5,468.5C 354.543,467.584 354.876,466.917 355.5,466.5 Z"/></g>
<g><path style="opacity:0.004" fill="#63c6c0" d="M 786.5,501.5 C 787.833,502.167 787.833,502.167 786.5,501.5 Z"/></g>
<g><path style="opacity:1" fill="#22a4a6" d="M 451.5,482.5 C 457.675,489.84 464.675,496.34 472.5,502C 481.095,506.628 489.428,510.128 497.5,512.5C 477.608,509.239 462.275,499.239 451.5,482.5 Z"/></g>
<g><path style="opacity:0.004" fill="#60c2bc" d="M 240.5,510.5 C 240.631,511.239 240.464,511.906 240,512.5C 239.308,511.563 239.475,510.897 240.5,510.5 Z"/></g>
<g><path style="opacity:0.004" fill="#5fc5c1" d="M 781.5,514.5 C 782.525,514.897 782.692,515.563 782,516.5C 781.536,515.906 781.369,515.239 781.5,514.5 Z"/></g>
<g><path style="opacity:0.004" fill="#5ec2be" d="M 239.5,516.5 C 240.833,517.167 240.833,517.167 239.5,516.5 Z"/></g>
<g><path style="opacity:0.008" fill="#5ec3bf" d="M 242.5,515.5 C 242.631,516.239 242.464,516.906 242,517.5C 241.308,516.563 241.475,515.897 242.5,515.5 Z"/></g>
<g><path style="opacity:0.008" fill="#5dc2bb" d="M 243.5,518.5 C 242.833,519.167 242.833,519.167 243.5,518.5 Z"/></g>
<g><path style="opacity:0.992" fill="#2aa8ac" d="M 378.5,518.5 C 385.103,526.44 392.103,534.107 399.5,541.5C 390.74,535.409 383.74,527.742 378.5,518.5 Z"/></g>
<g><path style="opacity:0.012" fill="#61c3c2" d="M 248.5,531.5 C 247.833,530.167 247.833,530.167 248.5,531.5 Z"/></g>
<g><path style="opacity:0.008" fill="#60c2c0" d="M 774.5,531.5 C 775.833,532.167 775.833,532.167 774.5,531.5 Z"/></g>
<g><path style="opacity:0.004" fill="#5fc0bd" d="M 247.5,536.5 C 248.833,537.167 248.833,537.167 247.5,536.5 Z"/></g>
<g><path style="opacity:0.008" fill="#5ec1be" d="M 251.5,536.5 C 251.631,537.239 251.464,537.906 251,538.5C 250.308,537.563 250.475,536.897 251.5,536.5 Z"/></g>
<g><path style="opacity:0.004" fill="#62c4c0" d="M 771.5,537.5 C 772.833,538.167 772.833,538.167 771.5,537.5 Z"/></g>
<g><path style="opacity:0.004" fill="#5cbebd" d="M 253.5,540.5 C 252.833,541.167 252.833,541.167 253.5,540.5 Z"/></g>
<g><path style="opacity:0.004" fill="#60c2be" d="M 252.5,541.5 C 251.833,542.167 251.833,542.167 252.5,541.5 Z"/></g>
<g><path style="opacity:0.996" fill="#21a5a8" d="M 623.5,543.5 C 612.368,553.723 599.701,560.723 585.5,564.5C 599.127,559.024 611.794,552.024 623.5,543.5 Z"/></g>
<g><path style="opacity:0.008" fill="#60c4c2" d="M 766.5,547.5 C 767.833,548.167 767.833,548.167 766.5,547.5 Z"/></g>
<g><path style="opacity:0.008" fill="#62c2c0" d="M 256.5,549.5 C 257.833,550.167 257.833,550.167 256.5,549.5 Z"/></g>
<g><path style="opacity:0.004" fill="#60c3be" d="M 261.5,558.5 C 262.833,559.167 262.833,559.167 261.5,558.5 Z"/></g>
<g><path style="opacity:0.004" fill="#60c1bb" d="M 264.5,562.5 C 263.833,561.167 263.833,561.167 264.5,562.5 Z"/></g>
<g><path style="opacity:0.992" fill="#24a5a9" d="M 419.5,555.5 C 432.383,561.941 445.716,567.274 459.5,571.5C 458.399,572.598 457.066,572.765 455.5,572C 442.561,568.309 430.561,562.809 419.5,555.5 Z"/></g>
<g><path style="opacity:0.004" fill="#5fc5bd" d="M 757.5,563.5 C 758.833,564.167 758.833,564.167 757.5,563.5 Z"/></g>
<g><path style="opacity:0.004" fill="#5fc4c0" d="M 756.5,565.5 C 757.833,566.167 757.833,566.167 756.5,565.5 Z"/></g>
<g><path style="opacity:0.004" fill="#63c7c1" d="M 266.5,566.5 C 267.833,567.167 267.833,567.167 266.5,566.5 Z"/></g>
<g><path style="opacity:0.004" fill="#5fc6c2" d="M 755.5,566.5 C 755.833,566.5 756.167,566.5 756.5,566.5C 756.315,567.17 755.981,567.17 755.5,566.5 Z"/></g>
<g><path style="opacity:0.008" fill="#5ec0bf" d="M 271.5,576.5 C 272.833,577.167 272.833,577.167 271.5,576.5 Z"/></g>
<g><path style="opacity:0.012" fill="#60c3bd" d="M 273.5,578.5 C 274.833,579.167 274.833,579.167 273.5,578.5 Z"/></g>
<g><path style="opacity:0.998" fill="#29acae" d="M 484.5,577.5 C 498.816,578.347 513.149,578.68 527.5,578.5C 524.803,579.981 519.303,580.647 511,580.5C 501.343,580.442 492.509,579.442 484.5,577.5 Z"/></g>
<g><path style="opacity:0.008" fill="#5ec2bf" d="M 276.5,580.5 C 276.631,581.239 276.464,581.906 276,582.5C 275.308,581.563 275.475,580.897 276.5,580.5 Z"/></g>
<g><path style="opacity:0.004" fill="#61c2bc" d="M 280.5,586.5 C 279.833,587.167 279.833,587.167 280.5,586.5 Z"/></g>
<g><path style="opacity:0.004" fill="#60c5bf" d="M 741.5,591.5 C 742.833,592.167 742.833,592.167 741.5,591.5 Z"/></g>
<g><path style="opacity:0.004" fill="#5dbebb" d="M 285.5,594.5 C 284.833,595.167 284.833,595.167 285.5,594.5 Z"/></g>
<g><path style="opacity:0.004" fill="#60c3be" d="M 288.5,599.5 C 287.833,600.167 287.833,600.167 288.5,599.5 Z"/></g>
<g><path style="opacity:0.012" fill="#5ec6bf" d="M 733.5,602.5 C 734.833,603.167 734.833,603.167 733.5,602.5 Z"/></g>
<g><path style="opacity:0.004" fill="#60c7c1" d="M 732.5,604.5 C 733.833,605.167 733.833,605.167 732.5,604.5 Z"/></g>
<g><path style="opacity:0.006" fill="#5ec4c1" d="M 291.5,603.5 C 291.328,604.492 291.662,605.158 292.5,605.5C 292.5,605.833 292.5,606.167 292.5,606.5C 290.448,605.947 290.115,604.947 291.5,603.5 Z"/></g>
<g><path style="opacity:0.012" fill="#61c8c1" d="M 731.5,605.5 C 731.833,605.5 732.167,605.5 732.5,605.5C 732.315,606.17 731.981,606.17 731.5,605.5 Z"/></g>
<g><path style="opacity:0.008" fill="#5fc2bf" d="M 292.5,606.5 C 292.833,606.5 293.167,606.5 293.5,606.5C 293.315,607.17 292.981,607.17 292.5,606.5 Z"/></g>
<g><path style="opacity:0.004" fill="#60c5be" d="M 724.5,616.5 C 725.833,617.167 725.833,617.167 724.5,616.5 Z"/></g>
<g><path style="opacity:0.012" fill="#61c5c2" d="M 723.5,617.5 C 723.833,617.5 724.167,617.5 724.5,617.5C 724.315,618.17 723.981,618.17 723.5,617.5 Z"/></g>
<g><path style="opacity:0.004" fill="#5ec1bf" d="M 300.5,617.5 C 300.631,618.239 300.464,618.906 300,619.5C 299.308,618.563 299.475,617.897 300.5,617.5 Z"/></g>
<g><path style="opacity:0.004" fill="#60c1be" d="M 303.5,624.5 C 304.833,625.167 304.833,625.167 303.5,624.5 Z"/></g>
<g><path style="opacity:0.012" fill="#5ec5c1" d="M 718.5,625.5 C 719.833,626.167 719.833,626.167 718.5,625.5 Z"/></g>
<g><path style="opacity:0.004" fill="#5dc4c0" d="M 717.5,626.5 C 717.833,626.5 718.167,626.5 718.5,626.5C 718.315,627.17 717.981,627.17 717.5,626.5 Z"/></g>
<g><path style="opacity:0.004" fill="#60c2bf" d="M 305.5,629.5 C 304.475,629.103 304.308,628.437 305,627.5C 305.464,628.094 305.631,628.761 305.5,629.5 Z"/></g>
<g><path style="opacity:0.004" fill="#5fc3c1" d="M 305.5,629.5 C 306.833,630.167 306.833,630.167 305.5,629.5 Z"/></g>
<g><path style="opacity:0.004" fill="#5fc3bf" d="M 303.5,630.5 C 304.833,631.167 304.833,631.167 303.5,630.5 Z"/></g>
<g><path style="opacity:0.004" fill="#5ec3bd" d="M 308.5,630.5 C 307.833,631.167 307.833,631.167 308.5,630.5 Z"/></g>
<g><path style="opacity:0.004" fill="#63c2bd" d="M 308.5,632.5 C 309.833,633.167 309.833,633.167 308.5,632.5 Z"/></g>
<g><path style="opacity:0.004" fill="#5fc4bc" d="M 311.5,637.5 C 312.833,638.167 312.833,638.167 311.5,637.5 Z"/></g>
<g><path style="opacity:0.008" fill="#5fc6bf" d="M 709.5,639.5 C 710.833,640.167 710.833,640.167 709.5,639.5 Z"/></g>
<g><path style="opacity:0.004" fill="#60c5c0" d="M 315.5,641.5 C 314.833,642.167 314.833,642.167 315.5,641.5 Z"/></g>
<g><path style="opacity:0.004" fill="#5fc5be" d="M 311.5,642.5 C 312.833,643.167 312.833,643.167 311.5,642.5 Z"/></g>
<g><path style="opacity:0.016" fill="#60c3be" d="M 314.5,642.5 C 313.833,643.167 313.833,643.167 314.5,642.5 Z"/></g>
<g><path style="opacity:0.004" fill="#61c5c0" d="M 315.5,643.5 C 316.833,644.167 316.833,644.167 315.5,643.5 Z"/></g>
<g><path style="opacity:0.008" fill="#61c2bc" d="M 311.5,644.5 C 312.833,645.167 312.833,645.167 311.5,644.5 Z"/></g>
<g><path style="opacity:0.004" fill="#60c2be" d="M 317.5,646.5 C 318.833,647.167 318.833,647.167 317.5,646.5 Z"/></g>
<g><path style="opacity:0.004" fill="#61c4c0" d="M 700.5,653.5 C 701.833,654.167 701.833,654.167 700.5,653.5 Z"/></g>
<g><path style="opacity:0.004" fill="#5dc1bf" d="M 330.5,664.5 C 329.833,665.167 329.833,665.167 330.5,664.5 Z"/></g>
<g><path style="opacity:0.004" fill="#5ac2bd" d="M 693.5,664.5 C 694.833,665.167 694.833,665.167 693.5,664.5 Z"/></g>
<g><path style="opacity:0.016" fill="#5fc5be" d="M 692.5,666.5 C 693.833,667.167 693.833,667.167 692.5,666.5 Z"/></g>
<g><path style="opacity:0.008" fill="#5dc3c0" d="M 331.5,666.5 C 331.672,667.492 331.338,668.158 330.5,668.5C 330.328,667.508 330.662,666.842 331.5,666.5 Z"/></g>
<g><path style="opacity:0.004" fill="#5dc3bf" d="M 330.5,668.5 C 330.5,668.833 330.5,669.167 330.5,669.5C 327.833,669.167 327.833,668.833 330.5,668.5 Z"/></g>
<g><path style="opacity:0.004" fill="#5dc2bf" d="M 330.5,669.5 C 331.239,669.369 331.906,669.536 332.5,670C 331.563,670.692 330.897,670.525 330.5,669.5 Z"/></g>
<g><path style="opacity:0.004" fill="#61c6c2" d="M 690.5,669.5 C 691.833,670.167 691.833,670.167 690.5,669.5 Z"/></g>
<g><path style="opacity:0.012" fill="#60c2bf" d="M 336.5,673.5 C 336.631,674.239 336.464,674.906 336,675.5C 335.308,674.563 335.475,673.897 336.5,673.5 Z"/></g>
<g><path style="opacity:0.004" fill="#5fc5c0" d="M 335.5,677.5 C 336.833,678.167 336.833,678.167 335.5,677.5 Z"/></g>
<g><path style="opacity:0.004" fill="#5ec4bd" d="M 346.5,691.5 C 345.833,690.167 345.833,690.167 346.5,691.5 Z"/></g>
<g><path style="opacity:0.012" fill="#5ec6bd" d="M 677.5,690.5 C 678.833,691.167 678.833,691.167 677.5,690.5 Z"/></g>
<g><path style="opacity:0.005" fill="#5dc2bf" d="M 346.5,691.5 C 347.167,691.833 347.833,692.167 348.5,692.5C 347.814,696.051 346.814,696.217 345.5,693C 346.056,692.617 346.389,692.117 346.5,691.5 Z"/></g>
<g><path style="opacity:0.004" fill="#60c5c2" d="M 675.5,692.5 C 676.833,693.167 676.833,693.167 675.5,692.5 Z"/></g>
<g><path style="opacity:0.012" fill="#60c3c0" d="M 352.5,698.5 C 351.833,699.167 351.833,699.167 352.5,698.5 Z"/></g>
<g><path style="opacity:0.008" fill="#5ec4be" d="M 353.5,700.5 C 352.833,701.167 352.833,701.167 353.5,700.5 Z"/></g>
<g><path style="opacity:0.008" fill="#5ec2bf" d="M 356.5,704.5 C 356.631,705.239 356.464,705.906 356,706.5C 355.308,705.563 355.475,704.897 356.5,704.5 Z"/></g>
<g><path style="opacity:0.008" fill="#5dc1be" d="M 360.5,715.5 C 361.833,716.167 361.833,716.167 360.5,715.5 Z"/></g>
<g><path style="opacity:0.004" fill="#5ec6bf" d="M 661.5,715.5 C 662.833,716.167 662.833,716.167 661.5,715.5 Z"/></g>
<g><path style="opacity:0.008" fill="#5ec2c0" d="M 360.5,716.5 C 359.833,717.167 359.833,717.167 360.5,716.5 Z"/></g>
<g><path style="opacity:0.004" fill="#5fc4c0" d="M 369.5,724.5 C 369.672,725.492 369.338,726.158 368.5,726.5C 368.328,725.508 368.662,724.842 369.5,724.5 Z"/></g>
<g><path style="opacity:0.004" fill="#61c5c1" d="M 368.5,726.5 C 367.833,727.167 367.833,727.167 368.5,726.5 Z"/></g>
<g><path style="opacity:0.008" fill="#60c4bd" d="M 652.5,728.5 C 653.833,729.167 653.833,729.167 652.5,728.5 Z"/></g>
<g><path style="opacity:0.008" fill="#60c3bf" d="M 372.5,729.5 C 371.833,730.167 371.833,730.167 372.5,729.5 Z"/></g>
<g><path style="opacity:0.004" fill="#62c2c1" d="M 372.5,731.5 C 373.833,732.167 373.833,732.167 372.5,731.5 Z"/></g>
<g><path style="opacity:0.004" fill="#5ec3be" d="M 375.5,736.5 C 376.833,737.167 376.833,737.167 375.5,736.5 Z"/></g>
<g><path style="opacity:0.008" fill="#5dc3bf" d="M 376.5,739.5 C 375.833,738.167 375.833,738.167 376.5,739.5 Z"/></g>
<g><path style="opacity:0.012" fill="#5ec6bf" d="M 645.5,738.5 C 646.833,739.167 646.833,739.167 645.5,738.5 Z"/></g>
<g><path style="opacity:1" fill="#50bbb8" d="M 401.5,772.5 C 398.5,768.5 395.5,764.5 392.5,760.5C 392.573,758.973 391.906,757.973 390.5,757.5C 390.459,755.255 389.625,754.588 388,755.5C 387.383,754.551 387.549,753.718 388.5,753C 385.189,747.897 382.355,743.731 380,740.5C 378.883,740.665 377.716,740.998 376.5,741.5C 375.537,741.03 375.537,740.363 376.5,739.5C 377.478,739.189 378.145,738.522 378.5,737.5C 376.829,734.508 374.829,731.841 372.5,729.5C 371.89,727.566 370.89,725.899 369.5,724.5C 368.271,721.076 366.271,719.076 363.5,718.5C 363.475,716.37 362.975,714.37 362,712.5C 361.257,714.645 360.424,714.811 359.5,713C 359.905,712.055 360.572,711.388 361.5,711C 359.934,708.674 358.268,706.508 356.5,704.5C 355.974,702.77 354.974,701.436 353.5,700.5C 353.672,699.508 353.338,698.842 352.5,698.5C 351.649,696.118 350.316,694.118 348.5,692.5C 347.167,689.833 345.833,687.167 344.5,684.5C 344.369,683.761 344.536,683.094 345,682.5C 363.895,711.438 383.062,741.104 402.5,771.5C 402.376,772.107 402.043,772.44 401.5,772.5 Z"/></g>
<g><path style="opacity:0.004" fill="#62c7c1" d="M 643.5,741.5 C 644.833,742.167 644.833,742.167 643.5,741.5 Z"/></g>
<g><path style="opacity:0.004" fill="#60c3c0" d="M 385.5,751.5 C 386.833,752.167 386.833,752.167 385.5,751.5 Z"/></g>
<g><path style="opacity:0.004" fill="#61c2be" d="M 383.5,752.5 C 384.833,753.167 384.833,753.167 383.5,752.5 Z"/></g>
<g><path style="opacity:0.004" fill="#61c4be" d="M 636.5,752.5 C 637.833,753.167 637.833,753.167 636.5,752.5 Z"/></g>
<g><path style="opacity:0.004" fill="#61c6c1" d="M 635.5,753.5 C 635.833,753.5 636.167,753.5 636.5,753.5C 636.315,754.17 635.981,754.17 635.5,753.5 Z"/></g>
<g><path style="opacity:0.004" fill="#5ec4be" d="M 390.5,757.5 C 389.833,758.167 389.833,758.167 390.5,757.5 Z"/></g>
<g><path style="opacity:0.008" fill="#60c5c0" d="M 632.5,758.5 C 633.833,759.167 633.833,759.167 632.5,758.5 Z"/></g>
<g><path style="opacity:0.012" fill="#5ec0be" d="M 392.5,760.5 C 391.833,761.167 391.833,761.167 392.5,760.5 Z"/></g>
<g><path style="opacity:0.006" fill="#5ec3c0" d="M 391.5,763.5 C 391.897,762.475 392.563,762.308 393.5,763C 392.906,763.464 392.239,763.631 391.5,763.5 Z"/></g>
<g><path style="opacity:0.004" fill="#5ec5c0" d="M 394.5,765.5 C 395.833,766.167 395.833,766.167 394.5,765.5 Z"/></g>
<g><path style="opacity:0.004" fill="#5ec0bc" d="M 396.5,768.5 C 397.833,769.167 397.833,769.167 396.5,768.5 Z"/></g>
<g><path style="opacity:0.004" fill="#60c3c0" d="M 399.5,776.5 C 400.833,777.167 400.833,777.167 399.5,776.5 Z"/></g>
<g><path style="opacity:0.004" fill="#5cc2bf" d="M 402.5,775.5 C 402.631,776.239 402.464,776.906 402,777.5C 401.308,776.563 401.475,775.897 402.5,775.5 Z"/></g>
<g><path style="opacity:0.004" fill="#5ec3bd" d="M 404.5,778.5 C 404.5,779.167 404.5,779.833 404.5,780.5C 403.167,779.833 403.167,779.167 404.5,778.5 Z"/></g>
<g><path style="opacity:0.004" fill="#5ec4be" d="M 400.5,780.5 C 401.833,781.167 401.833,781.167 400.5,780.5 Z"/></g>
<g><path style="opacity:0.012" fill="#5cc1be" d="M 404.5,780.5 C 404.833,780.5 405.167,780.5 405.5,780.5C 405.631,781.376 405.298,782.043 404.5,782.5C 403.537,782.03 403.537,781.363 404.5,780.5 Z"/></g>
<g><path style="opacity:0.004" fill="#5dc2c0" d="M 408.5,784.5 C 408.5,785.167 408.5,785.833 408.5,786.5C 407.167,785.833 407.167,785.167 408.5,784.5 Z"/></g>
<g><path style="opacity:0.012" fill="#5fc3c0" d="M 408.5,786.5 C 408.833,786.5 409.167,786.5 409.5,786.5C 409.672,787.492 409.338,788.158 408.5,788.5C 408.5,787.833 408.5,787.167 408.5,786.5 Z"/></g>
<g><path style="opacity:0.004" fill="#5ec2c0" d="M 408.5,788.5 C 407.833,789.167 407.833,789.167 408.5,788.5 Z"/></g>
<g><path style="opacity:0.008" fill="#60c5c0" d="M 611.5,789.5 C 612.833,790.167 612.833,790.167 611.5,789.5 Z"/></g>
<g><path style="opacity:0.016" fill="#5fc2bc" d="M 412.5,790.5 C 411.833,791.167 411.833,791.167 412.5,790.5 Z"/></g>
<g><path style="opacity:0.004" fill="#60c3be" d="M 415.5,800.5 C 416.833,801.167 416.833,801.167 415.5,800.5 Z"/></g>
<g><path style="opacity:0.004" fill="#60c3be" d="M 418.5,800.5 C 417.833,801.167 417.833,801.167 418.5,800.5 Z"/></g>
<g><path style="opacity:0.004" fill="#5fc2bd" d="M 420.5,803.5 C 419.833,804.167 419.833,804.167 420.5,803.5 Z"/></g>
<g><path style="opacity:0.008" fill="#5ec1bd" d="M 419.5,805.5 C 420.833,806.167 420.833,806.167 419.5,805.5 Z"/></g>
<g><path style="opacity:0.008" fill="#5dc1be" d="M 422.5,806.5 C 421.833,807.167 421.833,807.167 422.5,806.5 Z"/></g>
<g><path style="opacity:0.004" fill="#5fc4bf" d="M 600.5,806.5 C 601.833,807.167 601.833,807.167 600.5,806.5 Z"/></g>
<g><path style="opacity:0.012" fill="#5fc1bf" d="M 598.5,808.5 C 599.833,809.167 599.833,809.167 598.5,808.5 Z"/></g>
<g><path style="opacity:0.004" fill="#60c3bf" d="M 424.5,811.5 C 423.833,810.167 423.833,810.167 424.5,811.5 Z"/></g>
<g><path style="opacity:0.008" fill="#5fc2bf" d="M 424.5,811.5 C 424.833,811.5 425.167,811.5 425.5,811.5C 425.315,812.17 424.981,812.17 424.5,811.5 Z"/></g>
<g><path style="opacity:0.004" fill="#60c5c0" d="M 424.5,812.5 C 423.833,813.167 423.833,813.167 424.5,812.5 Z"/></g>
<g><path style="opacity:0.004" fill="#61c5c2" d="M 426.5,814.5 C 425.833,813.167 425.833,813.167 426.5,814.5 Z"/></g>
<g><path style="opacity:0.012" fill="#62c6c0" d="M 426.5,814.5 C 426.833,814.5 427.167,814.5 427.5,814.5C 427.315,815.17 426.981,815.17 426.5,814.5 Z"/></g>
<g><path style="opacity:0.004" fill="#61c1bc" d="M 429.5,817.5 C 428.833,818.167 428.833,818.167 429.5,817.5 Z"/></g>
<g><path style="opacity:0.004" fill="#63c5c2" d="M 587.5,825.5 C 588.833,826.167 588.833,826.167 587.5,825.5 Z"/></g>
<g><path style="opacity:0.004" fill="#60c4be" d="M 435.5,828.5 C 434.833,827.167 434.833,827.167 435.5,828.5 Z"/></g>
<g><path style="opacity:0.016" fill="#5fc3bf" d="M 435.5,828.5 C 435.833,828.5 436.167,828.5 436.5,828.5C 436.315,829.17 435.981,829.17 435.5,828.5 Z"/></g>
<g><path style="opacity:0.008" fill="#5fc3c1" d="M 441.5,835.5 C 441.291,836.922 440.791,838.255 440,839.5C 439.227,837.648 439.727,836.314 441.5,835.5 Z"/></g>
<g><path style="opacity:0.004" fill="#5ec2be" d="M 450.5,849.5 C 449.833,850.167 449.833,850.167 450.5,849.5 Z"/></g>
<g><path style="opacity:0.004" fill="#5ec1bd" d="M 449.5,850.5 C 448.833,851.167 448.833,851.167 449.5,850.5 Z"/></g>
<g><path style="opacity:0.004" fill="#5abfba" d="M 452.5,853.5 C 452.833,853.5 453.167,853.5 453.5,853.5C 453.315,854.17 452.981,854.17 452.5,853.5 Z"/></g>
<g><path style="opacity:0.016" fill="#60c2be" d="M 456.5,858.5 C 455.833,859.167 455.833,859.167 456.5,858.5 Z"/></g>
<g><path style="opacity:0.004" fill="#60c4c0" d="M 455.5,862.5 C 456.833,863.167 456.833,863.167 455.5,862.5 Z"/></g>
<g><path style="opacity:0.004" fill="#5ec3bd" d="M 464.5,872.5 C 465.833,873.167 465.833,873.167 464.5,872.5 Z"/></g>
<g><path style="opacity:0.004" fill="#5ec2bc" d="M 466.5,875.5 C 465.833,874.167 465.833,874.167 466.5,875.5 Z"/></g>
<g><path style="opacity:0.008" fill="#5fc0bd" d="M 466.5,875.5 C 467.167,875.5 467.5,875.833 467.5,876.5C 467.167,876.167 466.833,875.833 466.5,875.5 Z"/></g>
<g><path style="opacity:0.004" fill="#5dc0bc" d="M 463.5,876.5 C 464.833,877.167 464.833,877.167 463.5,876.5 Z"/></g>
<g><path style="opacity:0.004" fill="#5fc1bd" d="M 466.5,876.5 C 465.833,877.167 465.833,877.167 466.5,876.5 Z"/></g>
<g><path style="opacity:0.016" fill="#5ec0bb" d="M 467.5,876.5 C 467.833,876.5 468.167,876.5 468.5,876.5C 468.315,877.17 467.981,877.17 467.5,876.5 Z"/></g>
<g><path style="opacity:0.006" fill="#60c4bf" d="M 550.5,881.5 C 551.043,881.56 551.376,881.893 551.5,882.5C 550.743,883.773 550.077,883.773 549.5,882.5C 550.167,882.5 550.5,882.167 550.5,881.5 Z"/></g>
<g><path style="opacity:0.008" fill="#60c2be" d="M 472.5,882.5 C 471.833,883.167 471.833,883.167 472.5,882.5 Z"/></g>
<g><path style="opacity:0.016" fill="#5fc4be" d="M 473.5,885.5 C 472.833,884.167 472.833,884.167 473.5,885.5 Z"/></g>
<g><path style="opacity:0.004" fill="#60c4bf" d="M 550.5,884.5 C 551.833,885.167 551.833,885.167 550.5,884.5 Z"/></g>
<g><path style="opacity:0.008" fill="#61c4bf" d="M 473.5,885.5 C 473.833,885.5 474.167,885.5 474.5,885.5C 474.315,886.17 473.981,886.17 473.5,885.5 Z"/></g>
<g><path style="opacity:0.004" fill="#60c0bd" d="M 481.5,895.5 C 480.833,896.167 480.833,896.167 481.5,895.5 Z"/></g>
<g><path style="opacity:0.008" fill="#60c1bb" d="M 484.5,899.5 C 483.833,900.167 483.833,900.167 484.5,899.5 Z"/></g>
<g><path style="opacity:0.004" fill="#5dc0bc" d="M 483.5,901.5 C 484.833,902.167 484.833,902.167 483.5,901.5 Z"/></g>
<g><path style="opacity:0.004" fill="#5fc0bb" d="M 487.5,906.5 C 488.833,907.167 488.833,907.167 487.5,906.5 Z"/></g>
<g><path style="opacity:0.02" fill="#60c1bb" d="M 488.5,909.5 C 487.833,908.167 487.833,908.167 488.5,909.5 Z"/></g>
<g><path style="opacity:0.012" fill="#60bfbb" d="M 492.5,908.5 C 491.833,909.167 491.833,909.167 492.5,908.5 Z"/></g>
<g><path style="opacity:0.004" fill="#5ec0ba" d="M 488.5,909.5 C 489.833,910.167 489.833,910.167 488.5,909.5 Z"/></g>
<g><path style="opacity:0.004" fill="#5fbeb8" d="M 523.5,914.5 C 524.833,915.167 524.833,915.167 523.5,914.5 Z"/></g>
<g><path style="opacity:0.004" fill="#63c0bb" d="M 499.5,915.5 C 500.833,916.167 500.833,916.167 499.5,915.5 Z"/></g>
<g><path style="opacity:0.004" fill="#60bfb9" d="M 500.5,917.5 C 501.833,918.167 501.833,918.167 500.5,917.5 Z"/></g>
<g><path style="opacity:0.008" fill="#61c3be" d="M 503.5,917.5 C 504.833,918.167 504.833,918.167 503.5,917.5 Z"/></g>
<g><path style="opacity:0.006" fill="#60bfba" d="M 507.5,919.5 C 508.251,918.427 509.251,918.26 510.5,919C 509.552,919.483 508.552,919.649 507.5,919.5 Z"/></g>
<g><path style="opacity:0.008" fill="#61c1bb" d="M 511.5,919.5 C 511.897,918.475 512.563,918.308 513.5,919C 512.906,919.464 512.239,919.631 511.5,919.5 Z"/></g>
<g><path style="opacity:0.004" fill="#6d8c82" d="M 307.5,933.5 C 308.833,934.167 308.833,934.167 307.5,933.5 Z"/></g>
</svg>
